{
  "accessors": [
    {
      "bufferView": 2,
      "componentType": 5126,
      "count": 2686,
      "max": [
        20.0,
        0.0,
        17.0
      ],
      "min": [
        10.0,
        -10.0,
        0.0
      ],
      "type": "VEC3"
    },
    {
      "bufferView": 2,
      "byteOffset": 32232,
      "componentType": 5126,
      "count": 2686,
      "max": [
        1.0,
        1.0,
        1.0
      ],
      "min": [
        -1.0,
        -1.0,
        -1.0
      ],
      "type": "VEC3"
    },
    {
      "bufferView": 1,
      "componentType": 5126,
      "count": 2686,
      "max": [
        0.9999160766601563,
        0.8606308698654175
      ],
      "min": [
        3.1366944313049316e-05,
        0.00010856986045837402
      ],
      "type": "VEC2"
    },
    {
      "bufferView": 1,
      "byteOffset": 21488,
      "componentType": 5126,
      "count": 2686,
      "max": [
        0.9999160766601563,
        0.8606308698654175
      ],
      "min": [
        3.1366944313049316e-05,
        0.00010856986045837402
      ],
      "type": "VEC2"
    },
    {
      "bufferView": 1,
      "byteOffset": 42976,
      "componentType": 5126,
      "count": 2686,
      "max": [
        0.9999160766601563,
        0.8606308698654175
      ],
      "min": [
        3.1366944313049316e-05,
        0.00010856986045837402
      ],
      "type": "VEC2"
    },
    {
      "bufferView": 0,
      "componentType": 5125,
      "count": 8286,
      "type": "SCALAR"
    },
    {
      "bufferView": 2,
      "byteOffset": 64464,
      "componentType": 5126,
      "count": 560,
      "max": [
        20.0,
        0.0,
        13.0
      ],
      "min": [
        10.0,
        -10.0,
        4.0
      ],
      "type": "VEC3"
    },
    {
      "bufferView": 2,
      "byteOffset": 71184,
      "componentType": 5126,
      "count": 560,
      "max": [
        1.0,
        1.0,
        1.0
      ],
      "min": [
        -1.0,
        -1.0,
        -1.0
      ],
      "type": "VEC3"
    },
    {
      "bufferView": 1,
      "byteOffset": 64464,
      "componentType": 5126,
      "count": 560,
      "max": [
        0.9702908396720886,
        0.9998263120651245
      ],
      "min": [
        4.1157007217407227e-05,
        5.9314072132110596e-05
      ],
      "type": "VEC2"
    },
    {
      "bufferView": 1,
      "byteOffset": 68944,
      "componentType": 5126,
      "count": 560,
      "max": [
        0.9702908396720886,
        0.9998263120651245
      ],
      "min": [
        4.1157007217407227e-05,
        5.9314072132110596e-05
      ],
      "type": "VEC2"
    },
    {
      "bufferView": 1,
      "byteOffset": 73424,
      "componentType": 5126,
      "count": 560,
      "max": [
        0.9702908396720886,
        0.9998263120651245
      ],
      "min": [
        4.1157007217407227e-05,
        5.9314072132110596e-05
      ],
      "type": "VEC2"
    },
    {
      "bufferView": 0,
      "byteOffset": 33144,
      "componentType": 5125,
      "count": 1218,
      "type": "SCALAR"
    },
    {
      "bufferView": 2,
      "byteOffset": 77904,
      "componentType": 5126,
      "count": 1372,
      "max": [
        18.0,
        -2.0,
        17.0
      ],
      "min": [
        12.0,
        -8.0,
        0.0
      ],
      "type": "VEC3"
    },
    {
      "bufferView": 2,
      "byteOffset": 94368,
      "componentType": 5126,
      "count": 1372,
      "max": [
        0.9987009763717651,
        0.9987010359764099,
        1.0
      ],
      "min": [
        -0.9987009763717651,
        -0.9987009763717651,
        -1.0
      ],
      "type": "VEC3"
    },
    {
      "bufferView": 1,
      "byteOffset": 77904,
      "componentType": 5126,
      "count": 1372,
      "max": [
        0.6664227247238159,
        0.999807596206665
      ],
      "min": [
        0.00023858249187469482,
        0.00019249622710049152
      ],
      "type": "VEC2"
    },
    {
      "bufferView": 1,
      "byteOffset": 88880,
      "componentType": 5126,
      "count": 1372,
      "max": [
        0.6664227247238159,
        0.999807596206665
      ],
      "min": [
        0.00023858249187469482,
        0.00019249622710049152
      ],
      "type": "VEC2"
    },
    {
      "bufferView": 1,
      "byteOffset": 99856,
      "componentType": 5126,
      "count": 1372,
      "max": [
        0.6664227247238159,
        0.999807596206665
      ],
      "min": [
        0.00023858249187469482,
        0.00019249622710049152
      ],
      "type": "VEC2"
    },
    {
      "bufferView": 0,
      "byteOffset": 38016,
      "componentType": 5125,
      "count": 3045,
      "type": "SCALAR"
    },
    {
      "bufferView": 2,
      "byteOffset": 110832,
      "componentType": 5126,
      "count": 1107,
      "max": [
        19.0,
        -1.0,
        12.0
      ],
      "min": [
        11.0,
        -9.0,
        5.0
      ],
      "type": "VEC3"
    },
    {
      "bufferView": 2,
      "byteOffset": 124116,
      "componentType": 5126,
      "count": 1107,
      "max": [
        0.9988610744476318,
        0.99886155128479,
        1.0
      ],
      "min": [
        -0.998860776424408,
        -0.9988608956336975,
        -0.0003137706662528217
      ],
      "type": "VEC3"
    },
    {
      "bufferView": 1,
      "byteOffset": 110832,
      "componentType": 5126,
      "count": 1107,
      "max": [
        0.9999629259109497,
        0.9312073588371277
      ],
      "min": [
        5.576014518737793e-05,
        0.00022706389427185059
      ],
      "type": "VEC2"
    },
    {
      "bufferView": 1,
      "byteOffset": 119688,
      "componentType": 5126,
      "count": 1107,
      "max": [
        0.9999629259109497,
        0.9312073588371277
      ],
      "min": [
        5.576014518737793e-05,
        0.00022706389427185059
      ],
      "type": "VEC2"
    },
    {
      "bufferView": 1,
      "byteOffset": 128544,
      "componentType": 5126,
      "count": 1107,
      "max": [
        0.9999629259109497,
        0.9312073588371277
      ],
      "min": [
        5.576014518737793e-05,
        0.00022706389427185059
      ],
      "type": "VEC2"
    },
    {
      "bufferView": 0,
      "byteOffset": 50196,
      "componentType": 5125,
      "count": 1398,
      "type": "SCALAR"
    }
  ],
  "asset": {
    "extras": {
      "author": "Alterae (https://sketchfab.com/Alterae)",
      "license": "CC-BY-4.0 (http://creativecommons.org/licenses/by/4.0/)",
      "source": "https://sketchfab.com/3d-models/power-cell-76c8d5a567544d3a95f60ad2a45fcbec",
      "title": "Power Cell"
    },
    "generator": "Sketchfab-12.66.0",
    "version": "2.0"
  },
  "bufferViews": [
    {
      "buffer": 0,
      "byteLength": 55788,
      "name": "floatBufferViews",
      "target": 34963
    },
    {
      "buffer": 0,
      "byteLength": 137400,
      "byteOffset": 55788,
      "byteStride": 8,
      "name": "floatBufferViews",
      "target": 34962
    },
    {
      "buffer": 0,
      "byteLength": 137400,
      "byteOffset": 193188,
      "byteStride": 12,
      "name": "floatBufferViews",
      "target": 34962
    }
  ],
  "buffers": [
    {
      "byteLength": 330588,
      "uri": "scene.bin"
    }
  ],
  "extensionsRequired": [
    "KHR_materials_pbrSpecularGlossiness"
  ],
  "extensionsUsed": [
    "KHR_materials_pbrSpecularGlossiness"
  ],
  "images": [
    {
      "uri": "textures/material_diffuse.png"
    },
    {
      "uri": "textures/material_specularGlossiness.png"
    },
    {
      "uri": "textures/material_1_diffuse.png"
    },
    {
      "uri": "textures/material_1_specularGlossiness.png"
    },
    {
      "uri": "textures/material_2_diffuse.png"
    },
    {
      "uri": "textures/material_2_specularGlossiness.png"
    },
    {
      "uri": "textures/material_3_diffuse.png"
    },
    {
      "uri": "textures/material_3_specularGlossiness.png"
    }
  ],
  "materials": [
    {
      "alphaCutoff": 0.0,
      "alphaMode": "MASK",
      "doubleSided": true,
      "extensions": {
        "KHR_materials_pbrSpecularGlossiness": {
          "diffuseFactor": [
            1.0,
            1.0,
            1.0,
            1.0
          ],
          "diffuseTexture": {
            "index": 0
          },
          "glossinessFactor": 1.0,
          "specularFactor": [
            1.0,
            1.0,
            1.0
          ],
          "specularGlossinessTexture": {
            "index": 1,
            "texCoord": 1
          }
        }
      },
      "name": "material"
    },
    {
      "alphaCutoff": 0.0,
      "alphaMode": "MASK",
      "doubleSided": true,
      "extensions": {
        "KHR_materials_pbrSpecularGlossiness": {
          "diffuseFactor": [
            1.0,
            1.0,
            1.0,
            1.0
          ],
          "diffuseTexture": {
            "index": 2
          },
          "glossinessFactor": 1.0,
          "specularFactor": [
            1.0,
            1.0,
            1.0
          ],
          "specularGlossinessTexture": {
            "index": 3,
            "texCoord": 1
          }
        }
      },
      "name": "material_1"
    },
    {
      "alphaCutoff": 0.0,
      "alphaMode": "MASK",
      "doubleSided": true,
      "emissiveFactor": [
        1.0,
        0.7635125197721361,
        0.0
      ],
      "extensions": {
        "KHR_materials_pbrSpecularGlossiness": {
          "diffuseFactor": [
            1.0,
            1.0,
            1.0,
            1.0
          ],
          "diffuseTexture": {
            "index": 4
          },
          "glossinessFactor": 1.0,
          "specularFactor": [
            1.0,
            1.0,
            1.0
          ],
          "specularGlossinessTexture": {
            "index": 5
          }
        }
      },
      "name": "material_2"
    },
    {
      "alphaMode": "BLEND",
      "doubleSided": true,
      "extensions": {
        "KHR_materials_pbrSpecularGlossiness": {
          "diffuseFactor": [
            1.0,
            1.0,
            1.0,
            0.0
          ],
          "diffuseTexture": {
            "index": 6
          },
          "glossinessFactor": 1.0,
          "specularFactor": [
            1.0,
            1.0,
            1.0
          ],
          "specularGlossinessTexture": {
            "index": 7
          }
        }
      },
      "name": "material_3"
    }
  ],
  "meshes": [
    {
      "name": "Object_0",
      "primitives": [
        {
          "attributes": {
            "NORMAL": 1,
            "POSITION": 0,
            "TEXCOORD_0": 2,
            "TEXCOORD_1": 3,
            "TEXCOORD_2": 4
          },
          "indices": 5,
          "material": 0,
          "mode": 4
        }
      ]
    },
    {
      "name": "Object_1",
      "primitives": [
        {
          "attributes": {
            "NORMAL": 7,
            "POSITION": 6,
            "TEXCOORD_0": 8,
            "TEXCOORD_1": 9,
            "TEXCOORD_2": 10
          },
          "indices": 11,
          "material": 1,
          "mode": 4
        }
      ]
    },
    {
      "name": "Object_2",
      "primitives": [
        {
          "attributes": {
            "NORMAL": 13,
            "POSITION": 12,
            "TEXCOORD_0": 14,
            "TEXCOORD_1": 15,
            "TEXCOORD_2": 16
          },
          "indices": 17,
          "material": 2,
          "mode": 4
        }
      ]
    },
    {
      "name": "Object_3",
      "primitives": [
        {
          "attributes": {
            "NORMAL": 19,
            "POSITION": 18,
            "TEXCOORD_0": 20,
            "TEXCOORD_1": 21,
            "TEXCOORD_2": 22
          },
          "indices": 23,
          "material": 3,
          "mode": 4
        }
      ]
    }
  ],
  "nodes": [
    {
      "children": [
        1
      ],
      "matrix": [
        1.0,
        0.0,
        0.0,
        0.0,
        0.0,
        2.220446049250313e-16,
        -1.0,
        0.0,
        0.0,
        1.0,
        2.220446049250313e-16,
        0.0,
        0.0,
        0.0,
        0.0,
        1.0
      ],
      "name": "Sketchfab_model"
    },
    {
      "children": [
        2
      ],
      "name": "root"
    },
    {
      "children": [
        3
      ],
      "matrix": [
        1.0,
        0.0,
        0.0,
        0.0,
        0.0,
        2.220446049250313e-16,
        1.0,
        0.0,
        0.0,
        -1.0,
        2.220446049250313e-16,
        0.0,
        0.0,
        0.0,
        0.0,
        1.0
      ],
      "name": "GLTF_SceneRootNode"
    },
    {
      "children": [
        4
      ],
      "name": "root_4"
    },
    {
      "children": [
        5,
        7,
        9,
        11
      ],
      "matrix": [
        0.0010000000474974513,
        0.0,
        0.0,
        0.0,
        0.0,
        -1.6858740493895718e-10,
        -0.001000000047497437,
        0.0,
        0.0,
        0.001000000047497437,
        -1.6858740493895718e-10,
        0.0,
        0.010768602602183819,
        -0.2608914375305176,
        0.4351997971534729,
        1.0
      ],
      "name": "node_id8_5"
    },
    {
      "children": [
        6
      ],
      "matrix": [
        51.20000076293945,
        0.0,
        0.0,
        0.0,
        0.0,
        51.20000076293945,
        0.0,
        0.0,
        0.0,
        0.0,
        51.20000076293945,
        0.0,
        -768.0,
        255.99951171875,
        0.0,
        1.0
      ],
      "name": "_0"
    },
    {
      "mesh": 0,
      "name": "Object_6"
    },
    {
      "children": [
        8
      ],
      "matrix": [
        51.20000076293945,
        0.0,
        0.0,
        0.0,
        0.0,
        51.20000076293945,
        0.0,
        0.0,
        0.0,
        0.0,
        51.20000076293945,
        0.0,
        -768.0,
        255.99951171875,
        0.0,
        1.0
      ],
      "name": "_1"
    },
    {
      "mesh": 1,
      "name": "Object_8"
    },
    {
      "children": [
        10
      ],
      "matrix": [
        51.20000076293945,
        0.0,
        0.0,
        0.0,
        0.0,
        51.20000076293945,
        0.0,
        0.0,
        0.0,
        0.0,
        51.20000076293945,
        0.0,
        -768.0,
        255.99951171875,
        0.0,
        1.0
      ],
      "name": "_2"
    },
    {
      "mesh": 2,
      "name": "Object_10"
    },
    {
      "children": [
        12
      ],
      "matrix": [
        51.20000076293945,
        0.0,
        0.0,
        0.0,
        0.0,
        51.20000076293945,
        0.0,
        0.0,
        0.0,
        0.0,
        51.20000076293945,
        0.0,
        -768.0,
        255.99951171875,
        0.0,
        1.0
      ],
      "name": "_3"
    },
    {
      "mesh": 3,
      "name": "Object_12"
    }
  ],
  "samplers": [
    {
      "magFilter": 9729,
      "minFilter": 9987,
      "wrapS": 10497,
      "wrapT": 10497
    }
  ],
  "scene": 0,
  "scenes": [
    {
      "name": "Sketchfab_Scene",
      "nodes": [
        0
      ]
    }
  ],
  "textures": [
    {
      "sampler": 0,
      "source": 0
    },
    {
      "sampler": 0,
      "source": 1
    },
    {
      "sampler": 0,
      "source": 2
    },
    {
      "sampler": 0,
      "source": 3
    },
    {
      "sampler": 0,
      "source": 4
    },
    {
      "sampler": 0,
      "source": 5
    },
    {
      "sampler": 0,
      "source": 6
    },
    {
      "sampler": 0,
      "source": 7
    }
  ]
}
