{
  "accessors": [
    {
      "bufferView": 2,
      "componentType": 5126,
      "count": 65532,
      "max": [
        4.084981918334961,
        5.789294719696045,
        5.3590826988220215
      ],
      "min": [
        -4.593667030334473,
        -2.2520225048065186,
        -15.760313987731934
      ],
      "type": "VEC3"
    },
    {
      "bufferView": 2,
      "byteOffset": 786384,
      "componentType": 5126,
      "count": 65532,
      "max": [
        0.9999896287918091,
        0.9999615550041199,
        0.9998332262039185
      ],
      "min": [
        -0.9999329447746277,
        -0.9998844265937805,
        -0.998694121837616
      ],
      "type": "VEC3"
    },
    {
      "bufferView": 3,
      "componentType": 5126,
      "count": 65532,
      "max": [
        0.9993293285369873,
        0.9997490048408508,
        0.9965015053749084,
        1.0
      ],
      "min": [
        -0.9999253749847412,
        -0.9997225999832153,
        -0.9982766509056091,
        1.0
      ],
      "type": "VEC4"
    },
    {
      "bufferView": 1,
      "componentType": 5126,
      "count": 65532,
      "max": [
        0.9999609589576721,
        0.9999912977218628
      ],
      "min": [
        0.0,
        0.0
      ],
      "type": "VEC2"
    },
    {
      "bufferView": 0,
      "componentType": 5125,
      "count": 65532,
      "type": "SCALAR"
    },
    {
      "bufferView": 2,
      "byteOffset": 1572768,
      "componentType": 5126,
      "count": 65532,
      "max": [
        4.227011203765869,
        6.633533477783203,
        5.396725177764893
      ],
      "min": [
        -5.008696556091309,
        -2.3317062854766846,
        -18.626220703125
      ],
      "type": "VEC3"
    },
    {
      "bufferView": 2,
      "byteOffset": 2359152,
      "componentType": 5126,
      "count": 65532,
      "max": [
        0.999991774559021,
        0.9999866485595703,
        0.9994626641273499
      ],
      "min": [
        -0.9999906420707703,
        -0.9999642968177795,
        -0.9982913136482239
      ],
      "type": "VEC3"
    },
    {
      "bufferView": 3,
      "byteOffset": 1048512,
      "componentType": 5126,
      "count": 65532,
      "max": [
        0.9997285008430481,
        0.9998680949211121,
        0.989550769329071,
        1.0
      ],
      "min": [
        -0.9999186992645264,
        -0.999850869178772,
        -0.9966177344322205,
        1.0
      ],
      "type": "VEC4"
    },
    {
      "bufferView": 1,
      "byteOffset": 524256,
      "componentType": 5126,
      "count": 65532,
      "max": [
        1.0,
        1.0
      ],
      "min": [
        0.0,
        0.0
      ],
      "type": "VEC2"
    },
    {
      "bufferView": 0,
      "byteOffset": 262128,
      "componentType": 5125,
      "count": 65532,
      "type": "SCALAR"
    },
    {
      "bufferView": 2,
      "byteOffset": 3145536,
      "componentType": 5126,
      "count": 65532,
      "max": [
        4.230757236480713,
        7.081984519958496,
        5.0427141189575195
      ],
      "min": [
        -5.011297702789307,
        -2.282989501953125,
        -18.958555221557617
      ],
      "type": "VEC3"
    },
    {
      "bufferView": 2,
      "byteOffset": 3931920,
      "componentType": 5126,
      "count": 65532,
      "max": [
        0.9999857544898987,
        0.9999755620956421,
        0.9973560571670532
      ],
      "min": [
        -0.9999988079071045,
        -0.9998942613601685,
        -0.9994516968727112
      ],
      "type": "VEC3"
    },
    {
      "bufferView": 3,
      "byteOffset": 2097024,
      "componentType": 5126,
      "count": 65532,
      "max": [
        0.9996604323387146,
        0.9991692304611206,
        0.9872401356697083,
        1.0
      ],
      "min": [
        -0.9999696612358093,
        -0.9998824596405029,
        -0.9955034852027893,
        1.0
      ],
      "type": "VEC4"
    },
    {
      "bufferView": 1,
      "byteOffset": 1048512,
      "componentType": 5126,
      "count": 65532,
      "max": [
        0.9999826550483704,
        0.9999645948410034
      ],
      "min": [
        0.0,
        0.0
      ],
      "type": "VEC2"
    },
    {
      "bufferView": 0,
      "byteOffset": 524256,
      "componentType": 5125,
      "count": 65532,
      "type": "SCALAR"
    },
    {
      "bufferView": 2,
      "byteOffset": 4718304,
      "componentType": 5126,
      "count": 65532,
      "max": [
        4.230757236480713,
        6.846681118011475,
        5.396725177764893
      ],
      "min": [
        -5.008696556091309,
        -2.3317062854766846,
        -18.687894821166992
      ],
      "type": "VEC3"
    },
    {
      "bufferView": 2,
      "byteOffset": 5504688,
      "componentType": 5126,
      "count": 65532,
      "max": [
        0.9999480843544006,
        0.9999533295631409,
        0.9997254610061646
      ],
      "min": [
        -0.9999406933784485,
        -0.9998761415481567,
        -0.9999510049819946
      ],
      "type": "VEC3"
    },
    {
      "bufferView": 3,
      "byteOffset": 3145536,
      "componentType": 5126,
      "count": 65532,
      "max": [
        0.9997259974479675,
        0.9993368983268738,
        0.999902606010437,
        1.0
      ],
      "min": [
        -0.9999184012413025,
        -0.9991278648376465,
        -0.9999125003814697,
        1.0
      ],
      "type": "VEC4"
    },
    {
      "bufferView": 1,
      "byteOffset": 1572768,
      "componentType": 5126,
      "count": 65532,
      "max": [
        0.9999826550483704,
        0.9999983310699463
      ],
      "min": [
        0.0007036040187813342,
        0.0
      ],
      "type": "VEC2"
    },
    {
      "bufferView": 0,
      "byteOffset": 786384,
      "componentType": 5125,
      "count": 65532,
      "type": "SCALAR"
    },
    {
      "bufferView": 2,
      "byteOffset": 6291072,
      "componentType": 5126,
      "count": 23004,
      "max": [
        4.220062732696533,
        7.061002254486084,
        5.069520950317383
      ],
      "min": [
        -5.011297702789307,
        -1.9932781457901,
        -18.844970703125
      ],
      "type": "VEC3"
    },
    {
      "bufferView": 2,
      "byteOffset": 6567120,
      "componentType": 5126,
      "count": 23004,
      "max": [
        0.9997393488883972,
        0.9998257160186768,
        0.9993699789047241
      ],
      "min": [
        -0.9995973706245422,
        -0.9999350905418396,
        -0.9955894947052002
      ],
      "type": "VEC3"
    },
    {
      "bufferView": 3,
      "byteOffset": 4194048,
      "componentType": 5126,
      "count": 23004,
      "max": [
        0.9994041323661804,
        0.996952474117279,
        0.9910707473754883,
        1.0
      ],
      "min": [
        -0.999920129776001,
        -0.9989914298057556,
        -0.9999820590019226,
        1.0
      ],
      "type": "VEC4"
    },
    {
      "bufferView": 1,
      "byteOffset": 2097024,
      "componentType": 5126,
      "count": 23004,
      "max": [
        0.9999580383300781,
        0.9999222755432129
      ],
      "min": [
        0.0,
        0.0
      ],
      "type": "VEC2"
    },
    {
      "bufferView": 0,
      "byteOffset": 1048512,
      "componentType": 5125,
      "count": 23004,
      "type": "SCALAR"
    }
  ],
  "asset": {
    "extras": {
      "author": "Lex Wild (https://sketchfab.com/lexwild)",
      "license": "CC-BY-4.0 (http://creativecommons.org/licenses/by/4.0/)",
      "source": "https://sketchfab.com/3d-models/6-stylized-monster-f0aa9258214844a1b6690c03ec473f78",
      "title": "6- Stylized- Monster"
    },
    "generator": "Sketchfab-12.68.0",
    "version": "2.0"
  },
  "bufferViews": [
    {
      "buffer": 0,
      "byteLength": 1140528,
      "name": "floatBufferViews",
      "target": 34963
    },
    {
      "buffer": 0,
      "byteLength": 2281056,
      "byteOffset": 1140528,
      "byteStride": 8,
      "name": "floatBufferViews",
      "target": 34962
    },
    {
      "buffer": 0,
      "byteLength": 6843168,
      "byteOffset": 3421584,
      "byteStride": 12,
      "name": "floatBufferViews",
      "target": 34962
    },
    {
      "buffer": 0,
      "byteLength": 4562112,
      "byteOffset": 10264752,
      "byteStride": 16,
      "name": "floatBufferViews",
      "target": 34962
    }
  ],
  "buffers": [
    {
      "byteLength": 14826864,
      "uri": "scene.bin"
    }
  ],
  "images": [
    {
      "uri": "textures/Material.001_normal.png"
    }
  ],
  "materials": [
    {
      "name": "Material.001",
      "normalTexture": {
        "index": 0
      },
      "pbrMetallicRoughness": {
        "baseColorFactor": [
          0.0434515036381058,
          0.09583690719356976,
          0.09760766351008722,
          1.0
        ],
        "metallicFactor": 0.0,
        "roughnessFactor": 0.15000000000000002
      }
    }
  ],
  "meshes": [
    {
      "name": "Sphere.001_Material.001_0",
      "primitives": [
        {
          "attributes": {
            "NORMAL": 1,
            "POSITION": 0,
            "TANGENT": 2,
            "TEXCOORD_0": 3
          },
          "indices": 4,
          "material": 0,
          "mode": 4
        }
      ]
    },
    {
      "name": "Sphere.001_Material.001_0",
      "primitives": [
        {
          "attributes": {
            "NORMAL": 6,
            "POSITION": 5,
            "TANGENT": 7,
            "TEXCOORD_0": 8
          },
          "indices": 9,
          "material": 0,
          "mode": 4
        }
      ]
    },
    {
      "name": "Sphere.001_Material.001_0",
      "primitives": [
        {
          "attributes": {
            "NORMAL": 11,
            "POSITION": 10,
            "TANGENT": 12,
            "TEXCOORD_0": 13
          },
          "indices": 14,
          "material": 0,
          "mode": 4
        }
      ]
    },
    {
      "name": "Sphere.001_Material.001_0",
      "primitives": [
        {
          "attributes": {
            "NORMAL": 16,
            "POSITION": 15,
            "TANGENT": 17,
            "TEXCOORD_0": 18
          },
          "indices": 19,
          "material": 0,
          "mode": 4
        }
      ]
    },
    {
      "name": "Sphere.001_Material.001_0",
      "primitives": [
        {
          "attributes": {
            "NORMAL": 21,
            "POSITION": 20,
            "TANGENT": 22,
            "TEXCOORD_0": 23
          },
          "indices": 24,
          "material": 0,
          "mode": 4
        }
      ]
    }
  ],
  "nodes": [
    {
      "children": [
        1
      ],
      "matrix": [
        1.0,
        0.0,
        0.0,
        0.0,
        0.0,
        2.220446049250313e-16,
        -1.0,
        0.0,
        0.0,
        1.0,
        2.220446049250313e-16,
        0.0,
        0.0,
        0.0,
        0.0,
        1.0
      ],
      "name": "Sketchfab_model"
    },
    {
      "children": [
        2
      ],
      "matrix": [
        1.0,
        0.0,
        0.0,
        0.0,
        0.0,
        0.0,
        1.0,
        0.0,
        0.0,
        -1.0,
        0.0,
        0.0,
        0.0,
        0.0,
        0.0,
        1.0
      ],
      "name": "515c5a282947429588bb6962eb84bf7a.fbx"
    },
    {
      "children": [
        3
      ],
      "name": "RootNode"
    },
    {
      "children": [
        4,
        5,
        6,
        7,
        8
      ],
      "matrix": [
        1000.0,
        0.0,
        0.0,
        0.0,
        0.0,
        -0.0001629206793918314,
        -999.9999999999868,
        0.0,
        0.0,
        999.9999999999868,
        -0.0001629206793918314,
        0.0,
        0.0,
        0.0,
        0.0,
        1.0
      ],
      "name": "Sphere.001"
    },
    {
      "mesh": 0,
      "name": "Sphere.001_Material.001_0"
    },
    {
      "mesh": 1,
      "name": "Sphere.001_Material.001_0"
    },
    {
      "mesh": 2,
      "name": "Sphere.001_Material.001_0"
    },
    {
      "mesh": 3,
      "name": "Sphere.001_Material.001_0"
    },
    {
      "mesh": 4,
      "name": "Sphere.001_Material.001_0"
    }
  ],
  "samplers": [
    {
      "magFilter": 9729,
      "minFilter": 9987,
      "wrapS": 10497,
      "wrapT": 10497
    }
  ],
  "scene": 0,
  "scenes": [
    {
      "name": "Sketchfab_Scene",
      "nodes": [
        0
      ]
    }
  ],
  "textures": [
    {
      "sampler": 0,
      "source": 0
    }
  ]
}
